<svg style="position:absolute;z-index:-1;left:0;top:0;width:0;height:0;overflow:hidden">
    <symbol id="download" viewBox="0 0 16 21">
        <path
            d="M8.0268 15.1208C7.65346 15.1208 7.3335 14.8009 7.3335 14.4275V8.6933C7.3335 8.31997 7.65345 8 8.0268 8C8.40015 8 8.7201 8.31995 8.7201 8.6933V14.4275C8.7201 14.8274 8.40015 15.1208 8.0268 15.1208Z"
            fill="currentColor" />
        <path
            d="M8.0268 15.1208C7.65346 15.1208 7.3335 14.8009 7.3335 14.4275V8.6933C7.3335 8.31997 7.65345 8 8.0268 8C8.40015 8 8.7201 8.31995 8.7201 8.6933V14.4275C8.7201 14.8274 8.40015 15.1208 8.0268 15.1208Z"
            stroke="currentColor" />
        <path
            d="M8.02676 15.1208C7.84001 15.1208 7.65345 15.0408 7.52007 14.9075L5.20006 12.5875C4.93331 12.3207 4.93331 11.8674 5.20006 11.6008C5.46681 11.3341 5.92012 11.3341 6.1867 11.6008L7.99998 13.4141L9.81326 11.6008C10.08 11.3341 10.5333 11.3341 10.7999 11.6008C11.0666 11.8676 11.0666 12.3209 10.7999 12.5875L8.4799 14.9075C8.40009 15.0676 8.21352 15.1208 8.02676 15.1208Z"
            fill="currentColor" />
        <path
            d="M8.02676 15.1208C7.84001 15.1208 7.65345 15.0408 7.52007 14.9075L5.20006 12.5875C4.93331 12.3207 4.93331 11.8674 5.20006 11.6008C5.46681 11.3341 5.92012 11.3341 6.1867 11.6008L7.99998 13.4141L9.81326 11.6008C10.08 11.3341 10.5333 11.3341 10.7999 11.6008C11.0666 11.8676 11.0666 12.3209 10.7999 12.5875L8.4799 14.9075C8.40009 15.0676 8.21352 15.1208 8.02676 15.1208Z"
            stroke="none" />
        <path
            d="M2.19268 0.000224403H11.5686C12.0351 0.000224403 12.4548 0.186789 12.8281 0.513322L15.4869 3.17212C15.8134 3.49865 16 3.96512 16 4.43162V18.7519C16 19.9646 15.0204 20.9443 13.8075 20.9443H2.19245C0.979706 20.9443 0 19.9648 0 18.7519V2.19245C0 0.979706 0.979556 0 2.19245 0L2.19268 0.000224403ZM12.2684 1.63283V3.21884C12.2684 3.54536 12.5015 3.82528 12.8281 3.82528H14.4607L12.2682 1.63283H12.2684ZM14.7874 4.99143H12.8282C11.8487 4.99143 11.0556 4.19843 11.0556 3.21884V1.16633H2.19283C1.63313 1.16633 1.16663 1.63283 1.16663 2.19253V18.752C1.16663 19.3117 1.63313 19.7315 2.19283 19.7315H13.8079C14.3676 19.7315 14.7875 19.3116 14.7875 18.752V4.99121L14.7874 4.99143Z"
            fill="currentColor" />
    </symbol>
    <symbol id="tick-circle" viewBox="0 0 16 16">
        <path fill-rule="evenodd" clip-rule="evenodd"
            d="M8 0C12.4171 0 16 3.58286 16 8C16 12.4171 12.4171 16 8 16C3.58286 16 0 12.4171 0 8C0 3.58286 3.58286 0 8 0ZM7.75458 11.632C7.21472 12.1719 6.42946 12.0737 5.93861 11.4848L2.79746 8.34365C1.66866 7.21485 3.38641 5.49699 4.51521 6.62591L6.92012 8.98171L11.4844 4.41742C12.6132 3.28862 14.3801 5.00636 13.2021 6.13516L7.75415 11.632L7.75458 11.632Z"
            fill="currentColor" />
    </symbol>
    <symbol id="close-circle" viewBox="0 0 16 16">
        <path
            d="M8 0.00014449C5.8782 0.00014449 3.84338 0.842934 2.34314 2.34326C0.842892 3.84358 0 5.87839 0 8.00007C0 10.1218 0.842798 12.1567 2.34314 13.6569C3.84347 15.1571 5.8783 16 8 16C10.1217 16 12.1566 15.1572 13.6569 13.6569C15.1571 12.1566 16 10.1218 16 8.00007C16.0013 6.59536 15.6322 5.21522 14.9302 3.99858C14.2281 2.78194 13.218 1.7718 12.0014 1.06982C10.7847 0.367837 9.40458 -0.0012653 7.99986 3.25888e-06L8 0.00014449ZM10.9106 9.74358C11.1193 9.95207 11.2006 10.256 11.1242 10.541C11.0481 10.8259 10.8254 11.0485 10.5406 11.1247C10.2556 11.201 9.95166 11.1197 9.74314 10.911L7.99995 9.15982L6.25675 10.911C6.04826 11.1197 5.74434 11.201 5.45929 11.1247C5.17445 11.0485 4.95182 10.8259 4.87566 10.541C4.79931 10.256 4.88061 9.9521 5.08929 9.74358L6.84052 8.0004L5.08929 6.25722C4.88208 6.04836 4.8017 5.74519 4.87823 5.46108C4.95476 5.17716 5.17665 4.95526 5.46059 4.87872C5.7447 4.80219 6.04789 4.88258 6.25674 5.08978L7.99993 6.841L9.74313 5.08978C9.89767 4.93378 10.108 4.84606 10.3275 4.84551C10.547 4.84514 10.7577 4.93213 10.913 5.0874C11.0683 5.24266 11.1552 5.45335 11.1549 5.67286C11.1543 5.89236 11.0666 6.10268 10.9106 6.25724L9.15937 8.00042L10.9106 9.74358Z"
            fill="currentColor" />
    </symbol>
    <symbol id="calendar" viewBox="0 0 20 20">
        <path
            d="M17.1226 1.08384H15.0032V0.65887C15.0032 0.484127 14.9353 0.31654 14.8143 0.192978C14.6933 0.069416 14.5292 0 14.3581 0C14.187 0 14.0229 0.069416 13.9019 0.192978C13.7809 0.31654 13.7129 0.484127 13.7129 0.65887V1.08384H6.34194V0.65887C6.34194 0.484127 6.27396 0.31654 6.15297 0.192978C6.03198 0.069416 5.86788 0 5.69677 0C5.52567 0 5.36157 0.069416 5.24058 0.192978C5.11958 0.31654 5.05161 0.484127 5.05161 0.65887V1.08384H2.87742C2.11484 1.08384 1.38344 1.39299 0.843916 1.94336C0.304388 2.49374 0.000854911 3.24032 0 4.01911V17.0647C0.000854911 17.8435 0.304388 18.5901 0.843916 19.1405C1.38344 19.6909 2.11484 20 2.87742 20H17.1226C17.8852 20 18.6166 19.6909 19.1561 19.1405C19.6956 18.5901 19.9991 17.8435 20 17.0647V4.01911C19.9991 3.24032 19.6956 2.49374 19.1561 1.94336C18.6166 1.39299 17.8852 1.08384 17.1226 1.08384ZM1.29032 4.01911C1.29032 3.59011 1.45719 3.17869 1.75423 2.87534C2.05126 2.572 2.45412 2.40158 2.87419 2.40158H5.04839V2.82985C5.04839 3.00459 5.11636 3.17218 5.23735 3.29574C5.35834 3.4193 5.52244 3.48872 5.69355 3.48872C5.86466 3.48872 6.02875 3.4193 6.14975 3.29574C6.27074 3.17218 6.33871 3.00459 6.33871 2.82985V2.40158H13.7129V2.82985C13.7129 3.00459 13.7809 3.17218 13.9019 3.29574C14.0229 3.4193 14.187 3.48872 14.3581 3.48872C14.5292 3.48872 14.6933 3.4193 14.8143 3.29574C14.9353 3.17218 15.0032 3.00459 15.0032 2.82985V2.40158H17.1226C17.3308 2.40115 17.5372 2.44267 17.7297 2.52376C17.9222 2.60486 18.0972 2.72393 18.2446 2.87418C18.392 3.02442 18.509 3.20288 18.5888 3.39934C18.6686 3.59581 18.7097 3.80641 18.7097 4.01911V6.45034H1.29032V4.01911ZM17.1226 18.6823H2.87742C2.66915 18.6827 2.46284 18.6412 2.27031 18.5601C2.07777 18.479 1.90279 18.3599 1.75537 18.2097C1.60795 18.0594 1.49099 17.881 1.4112 17.6845C1.3314 17.488 1.29032 17.2774 1.29032 17.0647V7.76808H18.7097V17.0647C18.7097 17.2774 18.6686 17.488 18.5888 17.6845C18.509 17.881 18.392 18.0594 18.2446 18.2097C18.0972 18.3599 17.9222 18.479 17.7297 18.5601C17.5372 18.6412 17.3308 18.6827 17.1226 18.6823Z"
            fill-opacity="0.8" fill="currentColor" />
    </symbol>
    <symbol id="remove" viewBox="0 0 13 13">
        <path
            d="M6.49821 0C4.7744 0.000453463 3.12144 0.685732 1.90275 1.90493C0.68406 3.12414 -0.000278526 4.77742 8.50388e-08 6.50109C0.00036286 8.22491 0.685384 9.87809 1.90447 11.0968C3.12358 12.3155 4.77672 13.0002 6.50063 13C8.22453 12.9998 9.87763 12.3149 11.0966 11.096C12.3154 9.87695 13.0001 8.22372 13.0001 6.50005C12.9982 4.77642 12.3125 3.12398 11.0935 1.90528C9.87454 0.68673 8.22191 0.00143949 6.49824 0L6.49821 0ZM6.49821 11.8983C5.06715 11.8979 3.69492 11.329 2.68333 10.3169C1.67174 9.30476 1.10353 7.93222 1.10363 6.50132C1.10381 5.07035 1.67236 3.69803 2.68423 2.68621C3.6961 1.67438 5.06845 1.10578 6.49935 1.1056C7.93041 1.10551 9.30288 1.67371 10.3149 2.6853C11.327 3.69699 11.8959 5.06928 11.8964 6.50019C11.8949 7.93144 11.3257 9.30371 10.3137 10.3158C9.30151 11.3278 7.92921 11.897 6.49807 11.8985L6.49821 11.8983Z" />
        <path
            d="M10.0661 5.8562H2.93159C2.70159 5.8562 2.48909 5.97891 2.37409 6.17807C2.25909 6.37722 2.25909 6.62264 2.37409 6.82182C2.48909 7.02101 2.70157 7.14369 2.93159 7.14369H10.0661C10.2961 7.14369 10.5086 7.02098 10.6236 6.82182C10.7386 6.62267 10.7386 6.37725 10.6236 6.17807C10.5086 5.97888 10.2961 5.8562 10.0661 5.8562Z" />


    </symbol>
</svg>